# xmcd
# 
# Track frame offsets:
#     150
#     19362
#     37077
#     56750
#     68652
#     85540
#     101985
#     120122
#     138850
#     153425
#     168965
#     184132
#     201767
#     218770
# 
# Disc length: 3137
# 
# Revision: 6
# Processed by: cddbd v1.5.2PL0 Copyright (c) Steve Scherf et al.
# Submitted via: BonkEnc v1.0.6
# 
DISCID=bb0c3f0e
DTITLE=Leandro and Leonardo - Leandro and Leonardo Vol. 9
DYEAR=1995
DGENRE=Sertanejo
TTITLE0=Eu Juro
TTITLE1=O Que A Vida Fez Comigo
TTITLE2=Um Violeiro Toca
TTITLE3=Entre Um Gole E Outro
TTITLE4=Diz Pra Mim
TTITLE5=Chuva De Lagrimas
TTITLE6=Festa De Rodeio
TTITLE7=Jogo De Orgulho 
TTITLE8=Transa Comigo
TTITLE9=Fui Dando Porrada
TTITLE10=Animal
TTITLE11=Maravilhas Do Mundo
TTITLE12=Tarde Demais
TTITLE13=Viuva Nova
EXTD=
EXTT0=
EXTT1=
EXTT2=
EXTT3=
EXTT4=
EXTT5=
EXTT6=
EXTT7=
EXTT8=
EXTT9=
EXTT10=
EXTT11=
EXTT12=
EXTT13=
PLAYORDER=
